<?xml version="1.0" encoding="UTF-8"?>
<svg version="1.1" xmlns="http://www.w3.org/2000/svg" width="1563" height="1563">
<path d="M0 0 C515.79 0 1031.58 0 1563 0 C1563 515.79 1563 1031.58 1563 1563 C1047.21 1563 531.42 1563 0 1563 C0 1047.21 0 531.42 0 0 Z " fill="#000000" transform="translate(0,0)"/>
<path d="M0 0 C2.32567721 0.00315067 4.65006563 -0.02035554 6.97558594 -0.0456543 C20.3529669 -0.10389957 33.32884714 1.35722434 45.78027344 6.56567383 C46.52728516 6.86868408 47.27429688 7.17169434 48.04394531 7.48388672 C58.93635488 12.0002232 68.76853071 17.40042599 77.59277344 25.31567383 C78.49898437 26.1277832 79.40519531 26.93989258 80.33886719 27.77661133 C95.80115102 42.40251642 104.72488674 61.81064428 109.59277344 82.31567383 C109.7804126 83.08459961 109.96805176 83.85352539 110.16137695 84.64575195 C112.05389656 93.47919458 111.94829023 102.32617595 111.90527344 111.31567383 C111.90278595 112.13992859 111.90029846 112.96418335 111.8977356 113.81341553 C111.75846757 143.58349408 105.26811548 171.7285707 84.59277344 194.31567383 C83.86058594 195.1174707 83.12839844 195.91926758 82.37402344 196.74536133 C71.02140209 208.61764492 56.57539201 216.67849937 41.03027344 221.69067383 C40.3001001 221.92923096 39.56992676 222.16778809 38.81762695 222.41357422 C26.6458161 226.10285022 14.10572414 226.72854816 1.46777344 226.69067383 C0.74799316 226.68979767 0.02821289 226.68892151 -0.71337891 226.6880188 C-29.74974097 226.57190871 -55.54440516 218.14406814 -76.40722656 197.31567383 C-77.67179687 196.06850586 -77.67179687 196.06850586 -78.96191406 194.79614258 C-92.24125801 181.01226429 -100.05225583 162.7847088 -104.40722656 144.31567383 C-104.58600342 143.60306396 -104.76478027 142.8904541 -104.94897461 142.15625 C-106.86644193 133.42131091 -106.74446 124.63552448 -106.72290039 115.73779297 C-106.71974517 113.01920247 -106.74324958 110.3017083 -106.76855469 107.58325195 C-106.80539706 97.37680761 -106.07428631 88.2146614 -103.40722656 78.31567383 C-103.11734863 77.1266748 -102.8274707 75.93767578 -102.52880859 74.71264648 C-96.96606743 52.21661236 -82.37353358 30.21215501 -62.90722656 17.37817383 C-61.09171472 16.32597207 -59.25725152 15.30593615 -57.40722656 14.31567383 C-56.34117187 13.72399414 -55.27511719 13.13231445 -54.17675781 12.52270508 C-36.93916404 3.38775425 -19.39249725 -0.05470094 0 0 Z " fill="#F5F5F5" transform="translate(514.4072265625,673.684326171875)"/>
<path d="M0 0 C21.12 0 42.24 0 64 0 C68.95 9.24 73.9 18.48 79 28 C83.80200828 36.48531808 83.80200828 36.48531808 88.62109375 44.9609375 C92.90162718 52.54563082 96.95547401 60.24996 101.03048706 67.94622803 C105.40380429 76.20048937 109.86116672 84.39071789 114.5 92.5 C120.15473306 102.38520667 125.53284732 112.40241918 130.83007812 122.48242188 C136.98555224 134.13963415 143.5015394 145.50272355 150 157 C150 105.19 150 53.38 150 0 C166.17 0 182.34 0 199 0 C199 71.94 199 143.88 199 218 C177.22 218 155.44 218 133 218 C126.26326743 206.77211238 126.26326743 206.77211238 123.80859375 202.14453125 C123.26348145 201.12262695 122.71836914 200.10072266 122.15673828 199.04785156 C121.58938965 197.98018555 121.02204102 196.91251953 120.4375 195.8125 C115.9383397 187.39548472 111.36100834 179.03598498 106.625 170.75 C101.21884518 161.27987946 96.07054608 151.6881534 90.96878052 142.05230713 C86.61762066 133.83928483 82.18188325 125.69148906 77.5625 117.625 C71.40882103 106.87556015 65.60064973 95.95275129 59.82250977 84.99853516 C59.47334 84.33696411 59.12417023 83.67539307 58.76441956 82.99377441 C57.81556636 81.19463423 56.86864861 79.39447368 55.921875 77.59423828 C53.66306579 73.36987482 51.32640025 69.18752046 49 65 C49 115.49 49 165.98 49 218 C32.83 218 16.66 218 0 218 C0 146.06 0 74.12 0 0 Z " fill="#F6F6F6" transform="translate(173,678)"/>
<path d="M0 0 C52.47 0 104.94 0 159 0 C159 12.87 159 25.74 159 39 C123.03 39 87.06 39 50 39 C50 55.83 50 72.66 50 90 C83.66 90 117.32 90 152 90 C152 102.54 152 115.08 152 128 C118.34 128 84.68 128 50 128 C50 144.83 50 161.66 50 179 C86.96 179 123.92 179 162 179 C162 191.87 162 204.74 162 218 C108.54 218 55.08 218 0 218 C0 146.06 0 74.12 0 0 Z " fill="#F5F5F5" transform="translate(1090,678)"/>
<path d="M0 0 C2.07349642 -0.0096509 4.14597534 -0.0407406 6.21923828 -0.07226562 C32.29778169 -0.27908757 57.09483782 8.28188424 75.91064453 26.61523438 C84.89466637 36.08487902 90.32299534 46.951902 94.47314453 59.24023438 C94.84439453 60.33464844 94.84439453 60.33464844 95.22314453 61.45117188 C96.94308965 67.30376291 96.47314453 71.71956115 96.47314453 78.24023438 C80.30314453 78.24023438 64.13314453 78.24023438 47.47314453 78.24023438 C45.82314453 72.96023438 44.17314453 67.68023438 42.47314453 62.24023438 C36.51754059 50.71743544 29.71075792 43.95744249 17.47314453 39.24023438 C3.50895585 35.42018799 -10.59877506 36.1604523 -23.54248047 42.78320312 C-38.60709275 51.77669434 -46.10032173 66.6926063 -50.52685547 83.24023438 C-57.03519038 109.98542315 -54.35129016 144.17816767 -40.27685547 168.17773438 C-33.29838533 178.37703689 -23.11330604 186.36015395 -10.84326172 188.96289062 C3.14657328 190.63789616 15.64174616 189.04973825 27.47314453 181.24023438 C30.28582532 179.01093181 30.28582532 179.01093181 32.47314453 176.24023438 C33.02486328 175.62792969 33.57658203 175.015625 34.14501953 174.38476562 C41.48560725 165.77369158 44.04915861 156.14817103 46.47314453 145.24023438 C62.97314453 145.24023438 79.47314453 145.24023438 96.47314453 145.24023438 C94.14498593 163.86550316 94.14498593 163.86550316 91.78564453 169.99023438 C91.52364258 170.6943042 91.26164063 171.39837402 90.99169922 172.1237793 C82.54375895 194.019105 66.72508277 208.97371249 45.54638672 218.37207031 C30.61294982 224.62540305 15.30768821 226.6145918 -0.80322266 226.61083984 C-2.89421901 226.61521838 -4.98310313 226.65173562 -7.07373047 226.68945312 C-32.75590229 226.90186871 -57.73719889 216.2618676 -76.25732422 198.64257812 C-90.24974849 183.9125687 -98.54626683 165.80877663 -103.52685547 146.24023438 C-103.71666992 145.49612305 -103.90648437 144.75201172 -104.10205078 143.98535156 C-105.94376777 135.53569797 -105.82988446 127.06565143 -105.78759766 118.46191406 C-105.77690565 115.87736392 -105.78752744 113.29351308 -105.80029297 110.70898438 C-105.80852191 101.37619169 -105.38936312 92.42298701 -103.52685547 83.24023438 C-103.38618652 82.53253906 -103.24551758 81.82484375 -103.10058594 81.09570312 C-97.45660216 54.94639912 -82.21614363 31.13967228 -59.8112793 16.28759766 C-41.23405616 4.44080013 -21.88430494 0.06125768 0 0 Z " fill="#F5F5F5" transform="translate(758.52685546875,673.759765625)"/>
<path d="M0 0 C64.35 0 128.7 0 195 0 C195 12.54 195 25.08 195 38 C170.91 38 146.82 38 122 38 C122 97.4 122 156.8 122 218 C105.83 218 89.66 218 73 218 C73 158.6 73 99.2 73 38 C48.91 38 24.82 38 0 38 C0 25.46 0 12.92 0 0 Z " fill="#F6F6F6" transform="translate(871,678)"/>
<path d="M0 0 C0.86109375 0.25652344 1.7221875 0.51304687 2.609375 0.77734375 C9.54577939 3.00963964 14.59938566 6.14540366 20 11 C20.70125 11.62003906 21.4025 12.24007812 22.125 12.87890625 C36.43353247 26.29315544 41.77605166 46.36361084 42.49609375 65.421875 C43.17128896 89.64456505 41.3418704 115.49241091 24.671875 134.6796875 C13.51063537 146.21753338 0.83851994 151.94663672 -15.375 152.3125 C-29.7775419 152.16041402 -41.86424527 148.21123714 -52.75 138.5625 C-53.4925 137.716875 -54.235 136.87125 -55 136 C-55.51691406 135.50886719 -56.03382813 135.01773438 -56.56640625 134.51171875 C-72.94857495 117.98295346 -74.38298885 93.18276424 -74.38500977 71.33496094 C-74.25154409 50.24905783 -70.34959929 29.73963772 -55.18359375 14.11328125 C-54.10271484 13.06720703 -54.10271484 13.06720703 -53 12 C-52.41347656 11.41605469 -51.82695312 10.83210937 -51.22265625 10.23046875 C-38.25676323 -1.82018476 -16.63382874 -5.73015754 0 0 Z " fill="#000000" transform="translate(533,712)"/>
<path d="M0 0 C1.12148437 -0.020625 2.24296875 -0.04125 3.3984375 -0.0625 C21.97287573 -0.14829417 37.1359676 6.39371365 50.6875 18.9375 C65.46040863 34.43843698 67.94332389 52.49321772 67.71875 72.875 C67.5491419 78.99785249 66.56643902 84.48007287 64.5 90.25 C64.23316406 91.09175781 63.96632813 91.93351563 63.69140625 92.80078125 C58.74530193 106.93564826 47.72134878 118.54958795 34.5 125.25 C31.20725174 126.70705309 27.87626542 128.00163295 24.5 129.25 C23.74332031 129.59546875 22.98664063 129.9409375 22.20703125 130.296875 C6.8609804 135.70010214 -14.24693504 133.17609314 -28.6574707 126.63500977 C-45.82498559 118.34869439 -55.97236365 105.24639507 -62.25 87.5 C-67.13016013 73.0865038 -66.24431187 52.48323228 -60.25 38.625 C-59.35721451 36.82131453 -58.44068297 35.02917475 -57.5 33.25 C-57.06816406 32.40566406 -56.63632813 31.56132813 -56.19140625 30.69140625 C-47.10231877 14.18685929 -32.13705137 5.89812339 -14.66186523 0.70361328 C-9.87426247 -0.30094527 -4.8719045 0.02179823 0 0 Z " fill="#050505" transform="translate(1337.5,654.75)"/>
<path d="M0 0 C1.12148437 -0.020625 2.24296875 -0.04125 3.3984375 -0.0625 C21.97287573 -0.14829417 37.1359676 6.39371365 50.6875 18.9375 C65.46040863 34.43843698 67.94332389 52.49321772 67.71875 72.875 C67.5491419 78.99785249 66.56643902 84.48007287 64.5 90.25 C64.23316406 91.09175781 63.96632813 91.93351563 63.69140625 92.80078125 C58.74530193 106.93564826 47.72134878 118.54958795 34.5 125.25 C31.20725174 126.70705309 27.87626542 128.00163295 24.5 129.25 C23.74332031 129.59546875 22.98664063 129.9409375 22.20703125 130.296875 C6.8609804 135.70010214 -14.24693504 133.17609314 -28.6574707 126.63500977 C-45.82498559 118.34869439 -55.97236365 105.24639507 -62.25 87.5 C-67.13016013 73.0865038 -66.24431187 52.48323228 -60.25 38.625 C-59.35721451 36.82131453 -58.44068297 35.02917475 -57.5 33.25 C-57.06816406 32.40566406 -56.63632813 31.56132813 -56.19140625 30.69140625 C-47.10231877 14.18685929 -32.13705137 5.89812339 -14.66186523 0.70361328 C-9.87426247 -0.30094527 -4.8719045 0.02179823 0 0 Z M-36.5 33.25 C-38.89429616 36.43040628 -40.75659344 39.67601655 -42.5 43.25 C-42.9125 44.03375 -43.325 44.8175 -43.75 45.625 C-49.13765984 57.59757743 -47.8658565 73.70397843 -43.5703125 85.88671875 C-41.53980611 90.29174294 -39.38143237 94.32077404 -36.5 98.25 C-35.4790625 99.7040625 -35.4790625 99.7040625 -34.4375 101.1875 C-30.62037483 105.63497612 -25.57493764 108.44417772 -20.5 111.25 C-19.71238281 111.68957031 -18.92476562 112.12914062 -18.11328125 112.58203125 C-7.14369104 117.58105545 8.49922978 117.22281189 19.75 113.1875 C34.50419217 106.34078337 42.18912973 96.95797864 48.5 82.25 C51.38090786 70.27032697 51.53080477 54.15039869 45.5 43.25 C45.06429688 42.39664063 44.62859375 41.54328125 44.1796875 40.6640625 C37.52153569 28.54840921 27.81337273 21.64752396 14.83203125 17.37109375 C-4.43191613 12.87722022 -23.18673085 18.80809731 -36.5 33.25 Z " fill="#F4F4F4" transform="translate(1337.5,654.75)"/>
<path d="M0 0 C8.600625 -0.12375 8.600625 -0.12375 17.375 -0.25 C19.16341309 -0.28641602 20.95182617 -0.32283203 22.79443359 -0.36035156 C32.78767743 -0.47840224 40.32766154 0.37935843 48.9375 5.875 C52.64929413 9.69927274 54.17068166 13.21437329 54.375 18.5 C54.1793797 23.35790402 53.04129724 26.94237238 49.53515625 30.4765625 C45.50977654 34 45.50977654 34 43 34 C43 34.66 43 35.32 43 36 C43.61746094 36.26683594 44.23492188 36.53367187 44.87109375 36.80859375 C48.54153871 38.86269597 49.71798792 42.1803426 51 46 C52.51773588 52.47779208 54 59.34283253 54 66 C47.4 66 40.8 66 34 66 C32.75 58.25 32.75 58.25 32.38574219 55.82910156 C31.82616204 52.62804512 31.20116021 50.31901165 29.453125 47.546875 C26.20377828 45.24837658 26.20377828 45.24837658 18 45 C18 51.93 18 58.86 18 66 C12.06 66 6.12 66 0 66 C0 44.22 0 22.44 0 0 Z " fill="#F5F5F5" transform="translate(1314,686)"/>
<path d="M0 0 C11.34109091 -0.49309091 11.34109091 -0.49309091 14.359375 1.765625 C16.55534824 4.75633142 16.57253407 6.50189243 16.3984375 10.09765625 C15.79104423 12.99766139 14.33500208 14.28308671 12 16 C9.47524538 17.26237731 7.68799534 17.09856404 4.875 17.0625 C3.26625 17.041875 1.6575 17.02125 0 17 C0 11.39 0 5.78 0 0 Z " fill="#0B0B0B" transform="translate(1332,700)"/>
</svg>
